<svg xmlns="http://www.w3.org/2000/svg" xmlns:xlink="http://www.w3.org/1999/xlink" width="500" zoomAndPan="magnify" viewBox="0 0 375 374.999991" height="500" preserveAspectRatio="xMidYMid meet" version="1.0"><defs><clipPath id="a8bb2d086e"><path d="M 15.703125 278 L 263 278 L 263 341 L 15.703125 341 Z M 15.703125 278 " clipRule="nonzero"/></clipPath><clipPath id="a22991f81e"><path d="M 202 119 L 359.203125 119 L 359.203125 366.65625 L 202 366.65625 Z M 202 119 " clipRule="nonzero"/></clipPath><clipPath id="a4c5614e46"><path d="M 78 8.15625 L 247 8.15625 L 247 269 L 78 269 Z M 78 8.15625 " clipRule="nonzero"/></clipPath></defs><g clipPath="url(#a8bb2d086e)"><path fill="#8ca1cf" d="M 46.78125 278.964844 L 232.816406 278.964844 L 262.273438 340.703125 L 15.777344 340.703125 L 46.78125 278.964844 " fillOpacity="1" fillRule="evenodd"/></g><g clipPath="url(#a22991f81e)"><path fill="#9875ab" d="M 335.136719 314.042969 L 359.167969 366.660156 L 286.304688 366.660156 L 202.589844 190.566406 L 239.019531 119 L 335.136719 314.042969 " fillOpacity="1" fillRule="evenodd"/></g><g clipPath="url(#a4c5614e46)"><path fill="#6acfd4" d="M 164.605469 242.484375 L 152.203125 268.4375 L 78.5625 268.4375 L 211.117188 8.152344 L 246.773438 81.117188 L 164.605469 242.484375 " fillOpacity="1" fillRule="evenodd"/></g></svg>